<svg width="24" height="24" viewBox="0 0 24 24" fill="none" xmlns="http://www.w3.org/2000/svg">
<path d="M7.61891 17.143C7.61891 17.562 7.96177 17.9049 8.38081 17.9049H9.14272V20.5716C9.14272 21.2039 9.65319 21.7144 10.2856 21.7144C10.918 21.7144 11.4284 21.2039 11.4284 20.5716V17.9049H12.9522V20.5716C12.9522 21.2039 13.4627 21.7144 14.0951 21.7144C14.7275 21.7144 15.238 21.2039 15.238 20.5716V17.9049H15.9999C16.4189 17.9049 16.7618 17.562 16.7618 17.143V9.52395H7.61891V17.143ZM5.71415 9.52395C5.08177 9.52395 4.57129 10.0344 4.57129 10.6668V16.0001C4.57129 16.6325 5.08177 17.143 5.71415 17.143C6.34653 17.143 6.857 16.6325 6.857 16.0001V10.6668C6.857 10.0344 6.34653 9.52395 5.71415 9.52395ZM18.6665 9.52395C18.0341 9.52395 17.5237 10.0344 17.5237 10.6668V16.0001C17.5237 16.6325 18.0341 17.143 18.6665 17.143C19.2989 17.143 19.8094 16.6325 19.8094 16.0001V10.6668C19.8094 10.0344 19.2989 9.52395 18.6665 9.52395ZM14.8799 5.07443L15.8703 4.08395C16.0227 3.93157 16.0227 3.69538 15.8703 3.543C15.718 3.39062 15.4818 3.39062 15.3294 3.543L14.2018 4.67062C13.5783 4.35487 12.8892 4.19043 12.1903 4.19062C11.4589 4.19062 10.7732 4.36585 10.1637 4.67062L9.02843 3.543C8.87605 3.39062 8.63986 3.39062 8.48748 3.543C8.3351 3.69538 8.3351 3.93157 8.48748 4.08395L9.48557 5.08204C8.90695 5.50542 8.43635 6.05932 8.11201 6.69874C7.78767 7.33816 7.61873 8.04507 7.61891 8.76204H16.7618C16.7618 7.24585 16.0227 5.9049 14.8799 5.07443V5.07443ZM10.6665 7.23823H9.90462V6.47633H10.6665V7.23823ZM14.4761 7.23823H13.7141V6.47633H14.4761V7.23823Z" fill="white"/>
</svg>
