<svg width="24" height="24" viewBox="0 0 24 24" fill="none" xmlns="http://www.w3.org/2000/svg">
<path d="M19.6509 17.6788C19.3743 18.3177 19.047 18.9057 18.6678 19.4464C18.1508 20.1834 17.7276 20.6936 17.4014 20.9769C16.8957 21.442 16.3539 21.6801 15.7738 21.6937C15.3573 21.6937 14.855 21.5752 14.2703 21.3347C13.6837 21.0954 13.1446 20.9769 12.6517 20.9769C12.1348 20.9769 11.5804 21.0954 10.9873 21.3347C10.3934 21.5752 9.91495 21.7004 9.54913 21.7129C8.99279 21.7366 8.43825 21.4916 7.88473 20.9769C7.53145 20.6688 7.08956 20.1406 6.56019 19.3922C5.99222 18.5931 5.52528 17.6664 5.15946 16.6099C4.76768 15.4688 4.57129 14.3638 4.57129 13.294C4.57129 12.0686 4.83608 11.0116 5.36647 10.1259C5.7833 9.41451 6.33784 8.85331 7.03188 8.44133C7.72592 8.02935 8.47584 7.81941 9.28343 7.80598C9.72532 7.80598 10.3048 7.94266 11.0249 8.2113C11.743 8.48084 12.2041 8.61752 12.4062 8.61752C12.5574 8.61752 13.0696 8.4577 13.9379 8.13906C14.759 7.84356 15.4521 7.72121 16.0198 7.76941C17.5582 7.89357 18.714 8.50002 19.4827 9.59262C18.1068 10.4263 17.4262 11.5939 17.4397 13.0919C17.4521 14.2586 17.8754 15.2295 18.7073 16.0004C19.0843 16.3582 19.5053 16.6348 19.9737 16.8312C19.8721 17.1258 19.7649 17.4079 19.6509 17.6788ZM16.1225 3.79453C16.1225 4.70902 15.7884 5.56288 15.1225 6.35321C14.3188 7.29275 13.3468 7.83566 12.2927 7.74999C12.2793 7.64028 12.2715 7.52481 12.2715 7.40348C12.2715 6.52556 12.6537 5.58602 13.3323 4.81782C13.6712 4.42887 14.1021 4.10546 14.6247 3.84747C15.1462 3.59332 15.6394 3.45278 16.1033 3.42871C16.1169 3.55096 16.1225 3.67323 16.1225 3.79452V3.79453Z" fill="white"/>
</svg>
