<svg width="24" height="24" viewBox="0 0 24 24" fill="none" xmlns="http://www.w3.org/2000/svg">
<path d="M20 10.5V5C20 3.895 19.105 3 18 3H5C3.895 3 3 3.895 3 5V15" stroke="white" stroke-width="1.5" stroke-linecap="round" stroke-linejoin="round"/>
<path d="M15 18H3C2.448 18 2 17.552 2 17V16C2 15.448 2.448 15 3 15H15" stroke="white" stroke-width="1.5" stroke-linecap="round" stroke-linejoin="round"/>
<path fill-rule="evenodd" clip-rule="evenodd" d="M21 21H16C15.448 21 15 20.552 15 20V11.5C15 10.948 15.448 10.5 16 10.5H21C21.552 10.5 22 10.948 22 11.5V20C22 20.552 21.552 21 21 21Z" stroke="white" stroke-width="1.5" stroke-linecap="round" stroke-linejoin="round"/>
<path d="M15 18H22" stroke="white" stroke-width="1.5" stroke-linecap="round" stroke-linejoin="round"/>
</svg>
