<svg width="44" height="44" viewBox="0 0 44 44" fill="none" xmlns="http://www.w3.org/2000/svg">
<path d="M26.4258 25.032L30.9633 20.4945C32.0376 19.4202 32.0376 17.6785 30.9633 16.606V16.606C29.8889 15.5317 28.1473 15.5317 27.0748 16.606" stroke="#FF6C4E" stroke-width="2.24551" stroke-linecap="round" stroke-linejoin="round"/>
<path d="M29.6676 21.7906C30.7419 20.7163 32.4836 20.7163 33.5561 21.7906V21.7906C34.6304 22.8649 34.6304 24.6066 33.5561 25.6791L29.0186 30.2166" stroke="#FF6C4E" stroke-width="2.24551" stroke-linecap="round" stroke-linejoin="round"/>
<path d="M22.5381 21.1437L33.5565 10.1254C34.6308 9.05107 34.6308 7.3094 33.5565 6.2369V6.2369C32.4821 5.16257 30.7405 5.16257 29.668 6.2369L16.0555 19.8494V14.9636C16.0555 13.3649 14.7593 12.0687 13.1606 12.0687V12.0687C11.8278 12.0687 10.682 13.0092 10.4198 14.3146L8.36097 24.6216C7.4993 28.9281 8.8468 33.3812 11.9543 36.4869V36.4869C17.084 41.6166 25.4018 41.6166 30.5315 36.4869L34.2055 32.8129L36.1506 30.8677C37.225 29.7934 37.225 28.0517 36.1506 26.9792V26.9792C35.0763 25.9049 33.3346 25.9049 32.2621 26.9792" stroke="#FF6C4E" stroke-width="2.24551" stroke-linecap="round" stroke-linejoin="round"/>
<path d="M21.6148 5.06006L19.6348 7.04006" stroke="#FF6C4E" stroke-width="2.24551" stroke-linecap="round" stroke-linejoin="round"/>
<path d="M4.96875 5.06006L6.80208 6.89339" stroke="#FF6C4E" stroke-width="2.24551" stroke-linecap="round" stroke-linejoin="round"/>
<path d="M13.2917 3.6665V6.2515" stroke="#FF6C4E" stroke-width="2.24551" stroke-linecap="round" stroke-linejoin="round"/>
</svg>
