<svg width="45" height="44" viewBox="0 0 45 44" fill="none" xmlns="http://www.w3.org/2000/svg">
<path d="M33.5337 9.94363C39.7196 16.1295 39.7196 26.1589 33.5337 32.3447C27.3478 38.5306 17.3185 38.5306 11.1326 32.3447C4.94669 26.1588 4.94669 16.1295 11.1326 9.94363C17.3185 3.75772 27.3478 3.75772 33.5337 9.94363" stroke="#FF6C4E" stroke-width="2.25" stroke-linecap="round" stroke-linejoin="round"/>
<path d="M31.6541 19.3757C31.9814 19.7031 31.9814 20.2329 31.6541 20.5602L30.9219 21.2924C30.723 21.4913 30.4397 21.5757 30.1651 21.5212L26.932 20.8735L24.2656 23.5399L24.9133 26.773C24.9678 27.0476 24.8816 27.3327 24.6845 27.5298L23.9523 28.262C23.625 28.5893 23.0952 28.5893 22.7678 28.262L15.6557 21.1498C15.3283 20.8225 15.3283 20.2927 15.6557 19.9653L16.3878 19.2332C16.5867 19.0343 16.8701 18.9498 17.1446 19.0044L20.3778 19.6521L23.0442 16.9857L22.3965 13.7525C22.3419 13.478 22.4282 13.1929 22.6253 12.9957L23.3574 12.2636C23.6848 11.9362 24.2146 11.9362 24.5419 12.2636L31.6541 19.3757" stroke="#FF6C4E" stroke-width="2.25" stroke-linecap="round" stroke-linejoin="round"/>
<path d="M15.6523 28.2652L19.2075 24.71" stroke="#FF6C4E" stroke-width="2.25" stroke-linecap="round" stroke-linejoin="round"/>
</svg>
